<svg width="23" height="17" viewBox="0 0 23 17" fill="none" xmlns="http://www.w3.org/2000/svg">
<path d="M21.6176 7.10866C21.5235 7.0955 21.4282 7.08942 21.3329 7.09049H5.10689L5.46071 6.94866C5.80655 6.80758 6.12117 6.61558 6.39049 6.38134L10.9407 2.45974C11.54 1.96671 11.6406 1.17357 11.1793 0.5805C10.6424 -0.0514852 9.61265 -0.188705 8.87931 0.274059C8.82007 0.311466 8.76376 0.352242 8.71084 0.396121L0.482648 7.48761C-0.160385 8.04119 -0.160951 8.9392 0.481362 9.4934C0.481774 9.49375 0.482237 9.49415 0.482648 9.4945L8.71084 16.586C9.35439 17.1391 10.3963 17.1378 11.0381 16.5832C11.0886 16.5395 11.1358 16.4931 11.1793 16.4442C11.6406 15.8511 11.54 15.058 10.9407 14.5649L6.39872 10.6362C6.15727 10.4279 5.87967 10.2532 5.5759 10.1186L5.08221 9.92708H21.2424C22.083 9.95399 22.8206 9.44788 22.9785 8.73571C23.124 7.96252 22.5147 7.23409 21.6176 7.10866Z" fill="#474747"/>
</svg>
