<svg width="134" height="124" viewBox="0 0 134 124" fill="none" xmlns="http://www.w3.org/2000/svg">
<path d="M122.253 123.876V111.441C122.253 111.441 127.317 120.257 122.253 123.876Z" fill="#F1F1F1"/>
<path d="M122.566 123.874L112.994 115.464C112.994 115.464 123.204 117.857 122.566 123.874Z" fill="#F1F1F1"/>
<path d="M88.8041 54.8692L38.0089 83.2807C37.8311 83.3799 37.6195 83.4076 37.4204 83.3576C37.2214 83.3076 37.0512 83.1842 36.9471 83.0143L4.2825 29.5291C4.17886 29.359 4.14998 29.1564 4.20218 28.9659C4.25438 28.7754 4.38341 28.6125 4.56096 28.513L55.3562 0.101436C55.5339 0.00225632 55.7456 -0.0253862 55.9446 0.0245723C56.1437 0.0745307 56.3139 0.198011 56.4179 0.367923L89.0826 53.8531C89.1862 54.0232 89.2151 54.2258 89.1629 54.4163C89.1107 54.6067 88.9816 54.7696 88.8041 54.8692Z" fill="white"/>
<path d="M88.8041 54.8692L38.0089 83.2807C37.8311 83.3799 37.6195 83.4076 37.4204 83.3576C37.2214 83.3076 37.0512 83.1842 36.9471 83.0143L4.2825 29.5291C4.17886 29.359 4.14998 29.1564 4.20218 28.9659C4.25438 28.7754 4.38341 28.6125 4.56096 28.513L55.3562 0.101436C55.5339 0.00225632 55.7456 -0.0253862 55.9446 0.0245723C56.1437 0.0745307 56.3139 0.198011 56.4179 0.367923L89.0826 53.8531C89.1862 54.0232 89.2151 54.2258 89.1629 54.4163C89.1107 54.6067 88.9816 54.7696 88.8041 54.8692ZM4.71762 28.7695C4.61109 28.8292 4.53367 28.927 4.50235 29.0413C4.47103 29.1556 4.48836 29.2771 4.55055 29.3792L37.2152 82.8643C37.2776 82.9663 37.3797 83.0404 37.4992 83.0704C37.6186 83.1003 37.7456 83.0837 37.8522 83.0242L88.6474 54.6127C88.754 54.553 88.8314 54.4552 88.8627 54.3409C88.894 54.2266 88.8767 54.1051 88.8145 54.003L56.1499 0.517844C56.0875 0.415891 55.9853 0.341799 55.8659 0.311823C55.7465 0.281848 55.6195 0.298436 55.5128 0.35795L4.71762 28.7695Z" fill="#3F3D56"/>
<path d="M37.3688 34.0957L24.7705 41.1423C24.5927 41.2415 24.3811 41.2692 24.182 41.2192C23.983 41.1693 23.8128 41.0458 23.7087 40.8759L16.3455 28.8193C16.2418 28.6491 16.213 28.4466 16.2652 28.2561C16.3174 28.0656 16.4464 27.9027 16.6239 27.8031L29.2222 20.7565C29.4 20.6573 29.6116 20.6296 29.8107 20.6796C30.0097 20.7296 30.18 20.853 30.284 21.023L37.6472 33.0796C37.7509 33.2497 37.7798 33.4522 37.7276 33.6427C37.6754 33.8332 37.5463 33.9961 37.3688 34.0957ZM16.7806 28.0596C16.6741 28.1194 16.5967 28.2171 16.5653 28.3314C16.534 28.4457 16.5513 28.5672 16.6135 28.6693L23.9768 40.7259C24.0392 40.8279 24.1413 40.902 24.2608 40.9319C24.3802 40.9619 24.5072 40.9453 24.6139 40.8858L37.2121 33.8392C37.3187 33.7794 37.3961 33.6817 37.4274 33.5674C37.4587 33.4531 37.4414 33.3316 37.3792 33.2295L30.016 21.1729C29.9535 21.0709 29.8514 20.9968 29.732 20.9669C29.6125 20.9369 29.4856 20.9535 29.3789 21.013L16.7806 28.0596Z" fill="#F2F2F2"/>
<path d="M34.6515 37.5948L22.0532 44.6414C21.8932 44.7307 21.7027 44.7556 21.5236 44.7106C21.3444 44.6656 21.1912 44.5545 21.0976 44.4016L13.7343 32.345C13.6411 32.1918 13.6151 32.0096 13.662 31.8381C13.709 31.6667 13.8251 31.5201 13.9849 31.4305L26.5832 24.3838C26.7432 24.2945 26.9337 24.2697 27.1128 24.3146C27.292 24.3596 27.4452 24.4707 27.5388 24.6236L34.9021 36.6802C34.9953 36.8334 35.0213 37.0156 34.9744 37.1871C34.9274 37.3585 34.8113 37.5052 34.6515 37.5948Z" fill="#1E3799"/>
<path d="M65.0597 28.5021L25.6565 50.5416C25.4966 50.6311 25.306 50.6561 25.1268 50.6111C24.9476 50.5661 24.7944 50.4548 24.7009 50.3018C24.6074 50.1487 24.5813 49.9663 24.6283 49.7948C24.6753 49.6233 24.7916 49.4767 24.9515 49.3872L64.3547 27.3477C64.4339 27.3034 64.5214 27.2745 64.6123 27.2625C64.7032 27.2506 64.7956 27.2559 64.8844 27.2782C64.9731 27.3005 65.0564 27.3393 65.1295 27.3923C65.2026 27.4454 65.264 27.5117 65.3103 27.5875C65.3566 27.6633 65.3868 27.7471 65.3993 27.8341C65.4117 27.9211 65.4062 28.0095 65.3829 28.0945C65.3596 28.1794 65.3191 28.2591 65.2636 28.329C65.2082 28.399 65.1389 28.4578 65.0597 28.5021Z" fill="#CCCCCC"/>
<path d="M57.9717 37.8006L28.0843 54.5177C28.0051 54.562 27.9175 54.5909 27.8266 54.6029C27.7357 54.6148 27.6433 54.6095 27.5546 54.5872C27.3754 54.5422 27.2221 54.4309 27.1287 54.2779C27.0352 54.1248 27.0091 53.9424 27.0561 53.7709C27.1031 53.5994 27.2193 53.4528 27.3793 53.3634L57.2667 36.6463C57.3459 36.602 57.4334 36.573 57.5243 36.5611C57.6152 36.5492 57.7076 36.5545 57.7964 36.5768C57.8851 36.5991 57.9684 36.6378 58.0415 36.6909C58.1145 36.744 58.176 36.8103 58.2223 36.8861C58.2686 36.9619 58.2988 37.0457 58.3113 37.1327C58.3237 37.2197 58.3182 37.3081 58.2949 37.3931C58.2716 37.478 58.2311 37.5577 58.1756 37.6276C58.1202 37.6975 58.0509 37.7563 57.9717 37.8006V37.8006Z" fill="#CCCCCC"/>
<path d="M55.9952 13.9552L38.5721 23.7006C38.4121 23.79 38.2216 23.815 38.0424 23.77C37.8631 23.7251 37.7099 23.6138 37.6165 23.4607C37.523 23.3076 37.4968 23.1253 37.5438 22.9538C37.5908 22.7823 37.7071 22.6357 37.8671 22.5462L55.2902 12.8008C55.4502 12.7114 55.6407 12.6864 55.8199 12.7313C55.9087 12.7536 55.992 12.7924 56.065 12.8455C56.1381 12.8985 56.1995 12.9649 56.2458 13.0407C56.2921 13.1165 56.3224 13.2002 56.3348 13.2872C56.3473 13.3742 56.3417 13.4627 56.3184 13.5476C56.2952 13.6325 56.2546 13.7122 56.1992 13.7822C56.1437 13.8521 56.0744 13.9109 55.9952 13.9552Z" fill="#CCCCCC"/>
<path d="M54.0757 20.3634L41.0008 27.6766C40.9216 27.7209 40.834 27.7499 40.7431 27.7618C40.6523 27.7737 40.5598 27.7684 40.4711 27.7461C40.3823 27.7239 40.299 27.6851 40.226 27.632C40.1529 27.5789 40.0915 27.5126 40.0452 27.4368C39.9989 27.361 39.9686 27.2772 39.9562 27.1903C39.9437 27.1033 39.9493 27.0148 39.9726 26.9299C39.9958 26.845 40.0364 26.7653 40.0918 26.6953C40.1473 26.6254 40.2166 26.5666 40.2958 26.5223L53.3707 19.209C53.5307 19.1196 53.7212 19.0946 53.9004 19.1395C54.0796 19.1845 54.2328 19.2958 54.3263 19.4489C54.4198 19.6019 54.4459 19.7843 54.3989 19.9558C54.3519 20.1273 54.2357 20.2739 54.0757 20.3634Z" fill="#CCCCCC"/>
<path d="M69.9161 36.4542L30.513 58.4938C30.353 58.5832 30.1625 58.6082 29.9833 58.5632C29.8041 58.5183 29.6509 58.407 29.5574 58.2539C29.4639 58.1008 29.4378 57.9185 29.4848 57.747C29.5318 57.5755 29.648 57.4289 29.808 57.3394L69.2111 35.2998C69.3711 35.2104 69.5616 35.1854 69.7408 35.2304C69.92 35.2753 70.0732 35.3866 70.1667 35.5397C70.2602 35.6928 70.2863 35.8751 70.2393 36.0466C70.1923 36.2181 70.0761 36.3647 69.9161 36.4542V36.4542Z" fill="#CCCCCC"/>
<path d="M62.8286 45.7528L32.9412 62.4699C32.862 62.5142 32.7745 62.5431 32.6836 62.555C32.5927 62.5669 32.5002 62.5616 32.4115 62.5393C32.3228 62.5171 32.2395 62.4783 32.1664 62.4252C32.0933 62.3722 32.0319 62.3058 31.9856 62.23C31.9393 62.1542 31.9091 62.0704 31.8966 61.9835C31.8842 61.8965 31.8897 61.808 31.913 61.7231C31.9363 61.6382 31.9768 61.5585 32.0322 61.4885C32.0877 61.4186 32.157 61.3598 32.2362 61.3155L62.1236 44.5984C62.2028 44.5541 62.2904 44.5252 62.3813 44.5133C62.4721 44.5014 62.5646 44.5067 62.6533 44.5289C62.7421 44.5512 62.8253 44.59 62.8984 44.6431C62.9715 44.6961 63.0329 44.7625 63.0792 44.8383C63.1255 44.9141 63.1557 44.9978 63.1682 45.0848C63.1807 45.1718 63.1751 45.2603 63.1518 45.3452C63.1286 45.4301 63.088 45.5098 63.0326 45.5798C62.9771 45.6497 62.9078 45.7085 62.8286 45.7528V45.7528Z" fill="#CCCCCC"/>
<path d="M74.7725 44.4064L35.3694 66.4459C35.2902 66.4902 35.2027 66.5192 35.1118 66.5311C35.0209 66.543 34.9285 66.5377 34.8397 66.5154C34.751 66.4931 34.6677 66.4544 34.5946 66.4013C34.5215 66.3482 34.4601 66.2819 34.4138 66.2061C34.3675 66.1303 34.3373 66.0465 34.3248 65.9595C34.3124 65.8725 34.3179 65.7841 34.3412 65.6992C34.3645 65.6142 34.405 65.5345 34.4605 65.4646C34.5159 65.3947 34.5852 65.3359 34.6644 65.2916L74.0675 43.252C74.1467 43.2077 74.2343 43.1788 74.3252 43.1668C74.4161 43.1549 74.5085 43.1602 74.5973 43.1825C74.686 43.2048 74.7693 43.2436 74.8423 43.2966C74.9154 43.3497 74.9769 43.416 75.0232 43.4918C75.0694 43.5676 75.0997 43.6514 75.1121 43.7384C75.1246 43.8254 75.119 43.9138 75.0958 43.9988C75.0725 44.0837 75.032 44.1634 74.9765 44.2333C74.921 44.3033 74.8517 44.3621 74.7725 44.4064Z" fill="#CCCCCC"/>
<path d="M77.2008 48.3824L37.7976 70.422C37.7184 70.4663 37.6309 70.4952 37.54 70.5071C37.4491 70.519 37.3567 70.5137 37.2679 70.4915C37.1792 70.4692 37.0959 70.4304 37.0228 70.3773C36.9498 70.3243 36.8883 70.2579 36.842 70.1821C36.7957 70.1063 36.7655 70.0226 36.7531 69.9356C36.7406 69.8486 36.7462 69.7601 36.7694 69.6752C36.7927 69.5903 36.8332 69.5106 36.8887 69.4406C36.9441 69.3707 37.0134 69.3119 37.0927 69.2676L76.4958 47.2281C76.575 47.1838 76.6625 47.1548 76.7534 47.1429C76.8443 47.131 76.9368 47.1363 77.0255 47.1586C77.1142 47.1809 77.1975 47.2196 77.2706 47.2727C77.3437 47.3258 77.4051 47.3921 77.4514 47.4679C77.4977 47.5437 77.5279 47.6275 77.5404 47.7145C77.5528 47.8014 77.5473 47.8899 77.524 47.9748C77.5007 48.0598 77.4602 48.1395 77.4048 48.2094C77.3493 48.2793 77.28 48.3381 77.2008 48.3824Z" fill="#CCCCCC"/>
<path d="M64.459 63.8612C65.0065 63.2442 65.4992 62.5847 65.9322 61.8894C66.3205 61.2621 66.7014 60.5915 66.787 59.8559C66.8308 59.5426 66.7967 59.2239 66.6875 58.9257C66.5783 58.6274 66.3971 58.358 66.1586 58.1394C65.9281 57.936 65.6359 57.8082 65.3244 57.7743C65.0129 57.7404 64.6982 57.8022 64.4259 57.9509C64.1503 58.1023 63.9226 58.3221 63.767 58.5872C63.6113 58.8523 63.5334 59.1527 63.5416 59.4567C63.564 59.7914 63.665 60.117 63.8372 60.4091C64.0094 60.7012 64.2482 60.9523 64.536 61.1437C65.7006 61.9513 67.5195 61.9091 68.7609 61.2946C70.1591 60.6024 70.8815 58.7914 69.783 57.5518C69.5545 57.2939 69.1743 57.5821 69.2316 57.8602C69.3042 58.2359 69.5239 58.5709 69.8459 58.7968C70.1679 59.0226 70.5678 59.1223 70.9641 59.0754C71.3603 59.0286 71.7229 58.8387 71.9777 58.5446C72.2326 58.2505 72.3605 57.8744 72.3353 57.4931L71.8415 57.7693C72.4469 58.026 73.1123 58.1255 73.7706 58.0579C74.429 57.9903 75.0572 57.758 75.5919 57.3843C75.8564 57.2004 76.0926 56.9819 76.2937 56.7352C76.5354 56.4334 76.9415 56.2384 77.2703 56.021L79.6396 54.4543C79.9881 54.2238 79.6567 53.6746 79.3053 53.907L77.1595 55.3259C76.802 55.5624 76.442 55.7959 76.0866 56.0354C75.8326 56.2065 75.6763 56.4829 75.4451 56.6862C75.0074 57.0629 74.4668 57.3129 73.8863 57.4068C73.3059 57.5008 72.7094 57.4349 72.1666 57.2169C72.116 57.1909 72.0593 57.1777 72.0019 57.1787C71.9445 57.1797 71.8883 57.1948 71.8388 57.2225C71.7892 57.2502 71.7479 57.2897 71.7189 57.337C71.6898 57.3844 71.6739 57.4382 71.6728 57.4931C71.699 57.7206 71.6301 57.9488 71.4813 58.128C71.3324 58.3072 71.1157 58.4228 70.8781 58.4498C70.6406 58.4767 70.4016 58.4127 70.2131 58.2718C70.0247 58.1308 69.902 57.9243 69.8719 57.6973L69.3204 58.0057C70.0291 58.8054 69.5572 60.032 68.7408 60.5686C67.8278 61.1686 66.4787 61.2728 65.4496 60.8998C65.1972 60.8167 64.9653 60.6846 64.7686 60.5119C64.5719 60.3391 64.4145 60.1294 64.3063 59.8959C64.206 59.6849 64.1774 59.4491 64.2245 59.2217C64.2716 58.9943 64.392 58.7868 64.5689 58.6284C64.7221 58.4836 64.9282 58.4013 65.1436 58.3991C65.359 58.3969 65.5669 58.4749 65.7234 58.6167C65.8938 58.7831 66.0188 58.9872 66.0874 59.2108C66.156 59.4344 66.1662 59.6707 66.1169 59.8989C66.0107 60.534 65.6439 61.1197 65.3026 61.6621C64.9129 62.2802 64.4722 62.8676 63.9847 63.4185C63.7114 63.7279 64.1829 64.1739 64.459 63.8612L64.459 63.8612Z" fill="#1E3799"/>
<path d="M70.3397 78.9336C70.3968 78.9898 70.4492 79.0502 70.4964 79.1143L77.8338 78.9425L78.6898 77.4456L81.2192 78.3866L79.9729 81.1775C79.8723 81.403 79.6979 81.5911 79.476 81.7136C79.2541 81.8362 78.9966 81.8865 78.7422 81.8571L70.4523 80.8987C70.2568 81.1356 69.9905 81.31 69.6889 81.3985C69.3873 81.4871 69.0647 81.4857 68.7639 81.3944C68.4632 81.3032 68.1986 81.1266 68.0053 80.888C67.8121 80.6493 67.6993 80.36 67.682 80.0586C67.6647 79.7571 67.7438 79.4578 67.9086 79.2004C68.0735 78.9429 68.3163 78.7396 68.6048 78.6175C68.8933 78.4954 69.2138 78.4602 69.5238 78.5167C69.8337 78.5731 70.1183 78.7186 70.3397 78.9336Z" fill="#FFB7B7"/>
<path d="M94.2586 121.578H91.846L90.6982 112.673L94.2589 112.673L94.2586 121.578Z" fill="#FFB7B7"/>
<path d="M94.8739 123.817L87.0947 123.816V123.722C87.0948 122.954 87.4138 122.217 87.9816 121.673C88.5495 121.13 89.3196 120.825 90.1226 120.824H90.1228L94.874 120.825L94.8739 123.817Z" fill="#2F2E41"/>
<path d="M72.3513 121.527L70.1328 120.62L72.7329 111.999L76.0072 113.338L72.3513 121.527Z" fill="#FFB7B7"/>
<path d="M71.9985 123.817L64.8447 120.892L64.8834 120.805C65.1989 120.099 65.7948 119.541 66.54 119.254C67.2852 118.968 68.1188 118.977 68.8573 119.279L68.8574 119.279L73.2267 121.065L71.9985 123.817Z" fill="#2F2E41"/>
<path d="M82.5315 80.8628L82.3569 83.5684L87.4566 84.0906L92.7926 84.6371L91.2219 80.5288L82.5315 80.8628Z" fill="#FFB7B7"/>
<path d="M82.1964 83.6032L80.2153 70.3861L83.6491 69.3091L84.6577 67.9855L89.5655 68.2634L90.2861 69.808L92.9031 70.9914L92.5009 78.1394L92.7943 84.1189L82.1964 83.6032Z" fill="#2F2E41"/>
<path d="M80.9498 80.0612L77.457 78.7238L77.4719 78.6644C77.4869 78.6044 78.9735 72.6594 79.1708 71.7041C79.3765 70.7088 80.1277 70.4336 80.1596 70.4224L80.1829 70.4142L81.5652 70.8168L82.1722 75.3816L80.9498 80.0612Z" fill="#2F2E41"/>
<path d="M74.1484 119.962L69.499 119.049L76.93 99.426L79.4733 92.7329C79.4733 92.7329 81.0864 87.3663 81.8151 85.2895L82.255 82.5029L92.6663 83.6058C92.6663 83.6058 95.5742 87.6927 94.6908 94.354L95.0904 119.392L90.441 119.62L86.5467 94.3681L79.7117 108.211C79.7117 108.211 77.5574 114.118 76.0161 115.398L74.1484 119.962Z" fill="#2F2E41"/>
<path d="M88.4911 84.5351C88.5729 84.5333 88.6548 84.5376 88.736 84.548L93.5931 79.2821L93.0281 77.6636L95.4689 76.5283L96.7601 79.3005C96.8644 79.5244 96.89 79.7747 96.833 80.0138C96.7761 80.2528 96.6396 80.4677 96.4441 80.6262L90.0734 85.7922C90.122 86.0905 90.0745 86.3959 89.9373 86.6678C89.8001 86.9396 89.5796 87.1651 89.3053 87.3141C89.0309 87.4632 88.7156 87.5287 88.4014 87.5021C88.0872 87.4755 87.7888 87.3579 87.5461 87.1651C87.3034 86.9723 87.1277 86.7133 87.0426 86.4226C86.9574 86.1319 86.9667 85.8232 87.0693 85.5377C87.1719 85.2522 87.3629 85.0034 87.6168 84.8243C87.8708 84.6452 88.1757 84.5443 88.4911 84.5351Z" fill="#FFB7B7"/>
<path d="M93.2053 79.7946L91.1792 75.2335L91.9694 72.0565L92.8209 71.0271C92.8832 71.0015 92.9505 70.9887 93.0183 70.9893C93.0861 70.9899 93.1531 71.004 93.2149 71.0306C93.529 71.1515 93.7964 71.5222 94.0098 72.1324L95.9086 77.3085L93.2053 79.7946Z" fill="#2F2E41"/>
<path d="M82.6934 66.2953V62.8567C82.6934 61.6347 83.2006 60.4627 84.1036 59.5986C85.0065 58.7345 86.2311 58.249 87.5081 58.249C88.785 58.249 90.0096 58.7345 90.9126 59.5986C91.8155 60.4627 92.3228 61.6347 92.3228 62.8567V66.2953C92.3226 66.4594 92.2544 66.6167 92.1331 66.7328C92.0119 66.8488 91.8475 66.9141 91.676 66.9143H83.3401C83.1686 66.9141 83.0043 66.8488 82.883 66.7328C82.7618 66.6167 82.6936 66.4594 82.6934 66.2953Z" fill="#2F2E41"/>
<path d="M86.5187 66.8343C88.4683 66.8343 90.0487 65.3218 90.0487 63.4561C90.0487 61.5904 88.4683 60.0779 86.5187 60.0779C84.5692 60.0779 82.9888 61.5904 82.9888 63.4561C82.9888 65.3218 84.5692 66.8343 86.5187 66.8343Z" fill="#FFB7B7"/>
<path d="M81.5542 63.132C81.5553 62.1656 81.957 61.2392 82.671 60.5558C83.385 59.8725 84.3531 59.4882 85.3629 59.4871H86.0815C87.0913 59.4882 88.0594 59.8725 88.7734 60.5558C89.4874 61.2392 89.889 62.1656 89.8901 63.132V63.2007H88.3715L87.8535 61.8127L87.7499 63.2007H86.965L86.7037 62.5004L86.6514 63.2007H81.5542L81.5542 63.132Z" fill="#2F2E41"/>
<path d="M86.171 67.301C86.0997 67.2086 86.0571 67.0988 86.0482 66.9842C86.0392 66.8697 86.0642 66.7551 86.1204 66.6535C86.8819 65.2674 87.9481 62.706 86.5329 61.1264L86.4311 61.0129H90.5398V66.9163L86.8074 67.5465C86.7696 67.5529 86.7313 67.5561 86.6929 67.5562C86.591 67.5562 86.4906 67.533 86.3999 67.4887C86.3091 67.4443 86.2307 67.38 86.171 67.301Z" fill="#2F2E41"/>
<path d="M38.2427 119.633L40.423 120.379L44.4661 112.685L41.2482 111.585L38.2427 119.633Z" fill="#9F616A"/>
<path d="M36.9312 121.466L37.9409 118.762L42.2348 120.23C42.96 120.479 43.5524 120.993 43.8821 121.66C44.2118 122.326 44.2518 123.09 43.9934 123.785L43.9616 123.87L36.9312 121.466Z" fill="#2F2E41"/>
<path d="M52.4208 121.697L54.7361 121.697L55.8378 113.15L52.4204 113.15L52.4208 121.697Z" fill="#9F616A"/>
<path d="M51.8306 120.974L56.3904 120.973H56.3906C56.7722 120.973 57.1501 121.045 57.5026 121.185C57.8552 121.325 58.1756 121.53 58.4454 121.788C58.7153 122.046 58.9293 122.353 59.0753 122.69C59.2214 123.027 59.2966 123.389 59.2966 123.754V123.845L51.8307 123.845L51.8306 120.974Z" fill="#2F2E41"/>
<path d="M47.144 67.0933L48.151 65.1891C48.151 65.1891 51.9023 66.0885 52.2433 68.1692L47.144 67.0933Z" fill="#F1F1F1"/>
<path d="M42.9894 88.8663L45.7277 103.491L38.4565 115.797L42.8004 117.423L50.1661 105.494L51.1104 102.241L51.6769 119.231L55.5945 119.117L57.3906 103.253L54.5098 88.5048L42.9894 88.8663Z" fill="#2F2E41"/>
<path d="M48.1875 92.3234C44.1645 92.3234 41.6103 91.587 41.5531 91.5753L41.4604 91.5565L43.5559 82.259L43.6502 73.683C43.6502 70.0487 46.1496 67.3694 46.4964 67.1221C46.5548 66.9015 46.6628 66.6958 46.8129 66.5192C46.963 66.3427 47.1515 66.1997 47.3653 66.1001C48.199 65.7381 49.2178 66.1725 49.2607 66.1912L52.3185 67.2884L52.3329 67.329C52.3697 67.4329 56.3973 80.0864 56.3973 80.0864C56.3973 80.0864 56.1535 91.1423 56.0685 91.5045C56.0685 91.5045 50.4228 92.3234 48.1875 92.3234Z" fill="#3F3D56"/>
<path d="M51.2788 64.5895C53.5613 64.5895 55.4117 62.8187 55.4117 60.6343C55.4117 58.45 53.5613 56.6792 51.2788 56.6792C48.9963 56.6792 47.146 58.45 47.146 60.6343C47.146 62.8187 48.9963 64.5895 51.2788 64.5895Z" fill="#9F616A"/>
<path opacity="0.2" d="M46.6704 74.3844L53.9008 84.0387L54.9685 79.5303L46.6704 74.3844Z" fill="black"/>
<path d="M69.3394 80.9533C69.1361 81.1073 68.8999 81.2167 68.6476 81.2738C68.3953 81.331 68.133 81.3345 67.8791 81.2841C67.6252 81.2337 67.386 81.1307 67.1782 80.9823C66.9704 80.8338 66.7992 80.6436 66.6765 80.425L60.4531 81.3783L61.8014 78.5218L67.5045 78.0545C67.902 77.8817 68.3518 77.8544 68.7689 77.9777C69.186 78.1011 69.5412 78.3666 69.7674 78.7239C69.9936 79.0813 70.0749 79.5056 69.9961 79.9164C69.9172 80.3273 69.6836 80.6963 69.3394 80.9533H69.3394Z" fill="#9F616A"/>
<path d="M62.1221 78.3593L64.3582 78.1494L64.9779 81.1347L62.1641 81.1823L62.1221 78.3593Z" fill="#F1F1F1"/>
<path d="M63.9551 82.1748L53.0034 81.2416L47.4735 72.8252L47.4565 72.7508C47.2995 72.0633 47.4094 71.3446 47.7656 70.7289C48.1218 70.1133 48.7 69.6427 49.3922 69.4051C50.0844 69.1675 50.8433 69.1791 51.5272 69.4378C52.2111 69.6964 52.7732 70.1845 53.1087 70.8107L56.3548 76.8704L62.9062 77.8182L63.9551 82.1748Z" fill="#3F3D56"/>
<path d="M47.7583 64.0684L51.1886 64.1863C51.3977 64.1934 51.9652 62.0339 52.0395 61.5859C52.0982 61.2942 52.2658 61.033 52.5111 60.851C52.7564 60.669 53.0625 60.5786 53.3723 60.5968C53.629 60.62 54.2765 60.1609 54.9447 59.6173C56.2132 58.5852 56.1472 56.6468 54.7537 55.7747C54.7157 55.7509 54.6783 55.7291 54.6416 55.7094C53.7625 55.2385 52.7342 55.0804 51.7269 55.0684C50.8137 55.0574 49.8747 55.1674 49.0702 55.581C47.628 56.3226 46.8604 57.9431 46.793 59.5086C46.7255 61.0741 47.25 62.6049 47.8451 64.0646" fill="#2F2E41"/>
<path d="M133.749 124H0.179625C0.131985 124 0.0862969 123.982 0.0526107 123.95C0.0189246 123.917 0 123.874 0 123.828C0 123.782 0.0189246 123.739 0.0526107 123.706C0.0862969 123.674 0.131985 123.656 0.179625 123.656H133.82C133.868 123.656 133.914 123.674 133.947 123.706C133.981 123.739 134 123.782 134 123.828C134 123.923 133.848 124 133.749 124Z" fill="#CBCBCB"/>
</svg>
