<svg width="128" height="109" viewBox="0 0 128 109" fill="none" xmlns="http://www.w3.org/2000/svg">
<path opacity="0.2" d="M117.972 0H10.175V109H117.972V0Z" fill="#1E3799"/>
<path opacity="0.5" d="M101.604 10.1768H26.3962V98.9722H101.604V10.1768Z" fill="#1E3799"/>
<path d="M128 15.6567H87.7419V93.9399H128V15.6567Z" fill="url(#paint0_linear)"/>
<path d="M40.2581 15.9548H0V94.238H40.2581V15.9548Z" fill="url(#paint1_linear)"/>
<path d="M126.673 16.8496H89.0691V92.2997H126.673V16.8496Z" fill="#1E3799"/>
<path d="M1.32722 92.2996H38.9309L38.9309 16.8495H1.32722L1.32722 92.2996Z" fill="#1E3799"/>
<path d="M32.7373 23.7087H7.52075V28.3312H32.7373V23.7087Z" fill="url(#paint2_linear)"/>
<path d="M120.627 30.7168H95.4102V35.3392H120.627V30.7168Z" fill="url(#paint3_linear)"/>
<path d="M120.479 37.874H95.2627V42.4965H120.479V37.874Z" fill="url(#paint4_linear)"/>
<path d="M120.479 45.0315H95.2627V49.6539H120.479V45.0315Z" fill="url(#paint5_linear)"/>
<path d="M120.479 52.1887H95.2627V56.8111H120.479V52.1887Z" fill="url(#paint6_linear)"/>
<path d="M120.479 59.3461H95.2627V63.9685H120.479V59.3461Z" fill="url(#paint7_linear)"/>
<path d="M120.479 66.5034H95.2627V71.1258H120.479V66.5034Z" fill="url(#paint8_linear)"/>
<path d="M120.479 73.6608H95.2627V78.2832H120.479V73.6608Z" fill="url(#paint9_linear)"/>
<path d="M120.479 80.8181H95.2627V85.4406H120.479V80.8181Z" fill="url(#paint10_linear)"/>
<path d="M120.479 23.7087H95.2627V28.3312H120.479V23.7087Z" fill="url(#paint11_linear)"/>
<path d="M32.7373 31.0151H7.52075V35.6376H32.7373V31.0151Z" fill="url(#paint12_linear)"/>
<path d="M32.7373 38.0232H7.52075V42.6456H32.7373V38.0232Z" fill="url(#paint13_linear)"/>
<path d="M32.7373 45.0315H7.52075V49.6539H32.7373V45.0315Z" fill="url(#paint14_linear)"/>
<path d="M32.7373 52.1887H7.52075V56.8111H32.7373V52.1887Z" fill="url(#paint15_linear)"/>
<path d="M32.7373 59.3461H7.52075V63.9685H32.7373V59.3461Z" fill="url(#paint16_linear)"/>
<path d="M32.2949 24.3052H8.1106V27.8838H32.2949V24.3052Z" fill="white"/>
<path d="M32.2212 31.3132H8.03687V34.8919H32.2212V31.3132Z" fill="white"/>
<path d="M32.2212 38.4705H8.03687V42.0491H32.2212V38.4705Z" fill="white"/>
<path d="M32.2212 45.6279H8.03687V49.2066H32.2212V45.6279Z" fill="white"/>
<path d="M32.2212 52.7853H8.03687V56.3639H32.2212V52.7853Z" fill="white"/>
<path d="M32.2212 59.9425H8.03687V63.5212H32.2212V59.9425Z" fill="white"/>
<path d="M32.7373 66.5034H7.52075V71.1258H32.7373V66.5034Z" fill="url(#paint17_linear)"/>
<path d="M32.2212 67.0999H8.03687V70.6785H32.2212V67.0999Z" fill="white"/>
<path d="M32.2212 67.0999H8.03687V70.6785H32.2212V67.0999Z" fill="white"/>
<path d="M32.2212 74.2572H8.03687V77.8359H32.2212V74.2572Z" fill="white"/>
<path d="M32.2212 81.4146H8.03687V84.9932H32.2212V81.4146Z" fill="white"/>
<path d="M120.037 24.156H95.8525V27.7347H120.037V24.156Z" fill="white"/>
<path d="M120.037 31.3132H95.8525V34.8919H120.037V31.3132Z" fill="white"/>
<path d="M120.037 38.4705H95.8525V42.0491H120.037V38.4705Z" fill="white"/>
<path d="M120.037 45.6279H95.8525V49.2066H120.037V45.6279Z" fill="white"/>
<path d="M120.037 52.7853H95.8525V56.3639H120.037V52.7853Z" fill="white"/>
<path d="M120.037 59.9425H95.8525V63.5212H120.037V59.9425Z" fill="white"/>
<path d="M120.037 67.0999H95.8525V70.6785H120.037V67.0999Z" fill="white"/>
<path d="M120.037 74.2572H95.8525V77.8359H120.037V74.2572Z" fill="white"/>
<path d="M120.037 81.4146H95.8525V84.9932H120.037V81.4146Z" fill="white"/>
<path d="M108.387 96.1765H19.4656V101.843H108.387V96.1765Z" fill="url(#paint18_linear)"/>
<path d="M107.797 96.7729H20.2026V101.246H107.797V96.7729Z" fill="#1E3799"/>
<path d="M108.534 7.45557H19.7603V13.2709H108.534V7.45557Z" fill="url(#paint19_linear)"/>
<path d="M107.797 7.90283H20.2026V12.3762H107.797V7.90283Z" fill="#1E3799"/>
<path opacity="0.5" d="M85.6773 16.8496H42.6174V92.2997H85.6773V16.8496Z" fill="#263238"/>
<path d="M97.2771 49.6613C98.3093 51.0599 96.7639 52.7121 96.7639 52.7121L97.0234 52.803C96.6415 53.231 95.1329 55.162 89.3169 63.8969C81.8699 75.0802 71.8349 77.87 71.8349 77.87C70.6156 76.9068 69.2286 76.183 67.7456 75.7363V74.6806C69.6405 74.1155 71.3719 73.095 72.7919 71.7064C74.212 70.3177 75.2786 68.6021 75.9005 66.7061C76.7884 64.9289 77.2501 62.9654 77.2483 60.9743C77.2483 53.817 71.3836 48.0106 64.1504 48.0106C56.9173 48.0106 51.0526 53.8155 51.0526 60.9743C51.0508 62.9654 51.5125 64.9289 52.4004 66.7061C53.0223 68.6021 54.0889 70.3177 55.5089 71.7064C56.929 73.095 58.6604 74.1155 60.5552 74.6806V75.7363C59.0723 76.183 57.6853 76.9068 56.466 77.87C56.466 77.87 46.4266 75.0772 38.9796 63.8939C33.1635 55.159 31.655 53.2265 31.273 52.8L31.5326 52.7091C31.5326 52.7091 29.9915 51.0569 31.0194 49.6583C32.0472 48.2596 24.2139 46.6075 25.1119 49.6583C26.01 52.7091 27.1661 54.2345 27.1661 54.2345C27.1661 54.2345 43.5643 80.3855 52.1246 84.7068C51.9224 85.5928 51.8205 86.4993 51.8209 87.4086V92.4933H76.4741V87.4086C76.4745 86.4993 76.3726 85.5928 76.1703 84.7068C84.7233 80.3825 101.129 54.236 101.129 54.236C101.129 54.236 102.285 52.7106 103.183 49.6598C104.081 46.609 96.2492 48.2626 97.2771 49.6613Z" fill="url(#paint20_linear)"/>
<path d="M64.1477 74.3362C71.0752 74.3362 76.6911 68.6577 76.6911 61.6528C76.6911 54.648 71.0752 48.9695 64.1477 48.9695C57.2201 48.9695 51.6042 54.648 51.6042 61.6528C51.6042 68.6577 57.2201 74.3362 64.1477 74.3362Z" fill="#263238"/>
<path d="M64.1476 75.5813C70.668 75.5813 75.9537 70.2366 75.9537 63.6435C75.9537 57.0504 70.668 51.7057 64.1476 51.7057C57.6273 51.7057 52.3416 57.0504 52.3416 63.6435C52.3416 70.2366 57.6273 75.5813 64.1476 75.5813Z" fill="#F8C198"/>
<path d="M59.4744 62.5236C60.2897 62.5236 60.9506 61.8554 60.9506 61.031C60.9506 60.2067 60.2897 59.5385 59.4744 59.5385C58.6592 59.5385 57.9983 60.2067 57.9983 61.031C57.9983 61.8554 58.6592 62.5236 59.4744 62.5236Z" fill="#263238"/>
<path d="M69.0669 62.5236C69.8822 62.5236 70.5431 61.8554 70.5431 61.031C70.5431 60.2067 69.8822 59.5385 69.0669 59.5385C68.2517 59.5385 67.5908 60.2067 67.5908 61.031C67.5908 61.8554 68.2517 62.5236 69.0669 62.5236Z" fill="#263238"/>
<path d="M67.5908 69.1128C67.5908 70.0075 66.0497 71.4762 64.1474 71.4762C62.2451 71.4762 60.7041 70.0075 60.7041 69.1128C60.7041 68.2182 62.2451 68.242 64.1474 68.242C66.0497 68.242 67.5908 68.2182 67.5908 69.1128Z" fill="white"/>
<path d="M59.8429 61.529C60.1149 61.529 60.3354 61.3061 60.3354 61.031C60.3354 60.7559 60.1149 60.533 59.8429 60.533C59.5709 60.533 59.3503 60.7559 59.3503 61.031C59.3503 61.3061 59.5709 61.529 59.8429 61.529Z" fill="white"/>
<path d="M69.558 61.529C69.83 61.529 70.0505 61.3061 70.0505 61.031C70.0505 60.7559 69.83 60.533 69.558 60.533C69.2859 60.533 69.0654 60.7559 69.0654 61.031C69.0654 61.3061 69.2859 61.529 69.558 61.529Z" fill="white"/>
<path d="M65.3271 57.017C64.6075 57.017 63.9616 56.3848 63.8849 55.6616C63.86 55.298 63.9455 54.9354 64.13 54.6223C64.3145 54.3092 64.5891 54.0605 64.9171 53.9096C64.9843 53.8745 65.0584 53.8551 65.1339 53.8529C65.3817 53.8529 65.504 54.1511 65.5837 54.3882C65.8314 55.1218 66.2709 55.8376 66.961 56.1775C67.6511 56.5175 68.6156 56.343 68.9798 55.6601C68.0036 55.2202 67.5863 53.8395 68.154 52.9239C68.3737 52.5705 68.7158 52.2708 68.7852 51.8593C68.912 51.1137 68.1039 50.571 67.3887 50.3473C65.3241 49.7017 58.1278 49.6301 57.7312 52.745C57.3153 56.0314 63.0606 57.4524 65.3271 57.017Z" fill="#263238"/>
<path d="M53.5988 65.7377C53.9776 65.5866 53.9412 64.5835 53.5173 63.4973C53.0935 62.411 52.4429 61.6529 52.0641 61.804C51.6853 61.9551 51.7217 62.9582 52.1456 64.0445C52.5694 65.1308 53.22 65.8889 53.5988 65.7377Z" fill="#F8C198"/>
<path d="M76.146 64.0365C76.5698 62.9503 76.6063 61.9472 76.2275 61.7961C75.8487 61.645 75.1981 62.403 74.7742 63.4893C74.3504 64.5756 74.3139 65.5787 74.6927 65.7298C75.0715 65.8809 75.7222 65.1228 76.146 64.0365Z" fill="#F8C198"/>
<path d="M71.5074 78.1847C71.5074 78.1847 81.1177 75.456 88.2506 64.5127C95.3835 53.5695 95.7522 53.5397 95.7522 53.5397L99.5642 55.0621C99.5642 55.0621 81.8565 83.9121 74.2325 85.4047C66.6086 86.8973 71.5074 78.1847 71.5074 78.1847Z" fill="#FF9800"/>
<path d="M95.385 53.571C95.385 53.571 96.8597 51.9546 95.8775 50.5887C94.8954 49.2229 102.396 47.6065 101.534 50.5887C100.673 53.571 99.5671 55.0621 99.5671 55.0621L95.385 53.571Z" fill="#F8C198"/>
<path d="M56.7875 78.1847C56.7875 78.1847 47.1772 75.456 40.0443 64.5127C32.9114 53.5695 32.5427 53.5397 32.5427 53.5397L28.7307 55.0621C28.7307 55.0621 46.4398 83.9121 54.0653 85.4047C61.6907 86.8973 56.7875 78.1847 56.7875 78.1847Z" fill="#FF9800"/>
<path d="M32.9097 53.571C32.9097 53.571 31.4351 51.9546 32.4172 50.5887C33.3993 49.2229 25.8992 47.6065 26.7604 50.5887C27.6216 53.571 28.7276 55.0621 28.7276 55.0621L32.9097 53.571Z" fill="#F8C198"/>
<g opacity="0.2">
<path opacity="0.2" d="M68.1719 51.1108C68.1011 51.5223 67.759 51.8205 67.5407 52.1754C67.0438 52.9776 67.3018 54.1377 68.0303 54.7103C67.9256 54.4419 67.8824 54.1529 67.9041 53.8652C67.9258 53.5775 68.0118 53.2985 68.1557 53.0492C68.3754 52.6958 68.7175 52.3961 68.7868 51.9846C68.8664 51.5178 68.5789 51.1302 68.1778 50.8513C68.1883 50.9376 68.1863 51.025 68.1719 51.1108Z" fill="white"/>
<path opacity="0.2" d="M65.1001 53.9797C65.053 53.8679 65.0087 53.7546 64.9704 53.6413C64.8907 53.4042 64.7683 53.1134 64.5206 53.106C64.4451 53.1082 64.371 53.1275 64.3038 53.1626C63.9758 53.3136 63.7011 53.5623 63.5167 53.8754C63.3322 54.1885 63.2467 54.5511 63.2716 54.9147C63.2989 55.134 63.3718 55.345 63.4854 55.5338C63.599 55.7227 63.7508 55.8852 63.9307 56.0106C63.9099 55.9369 63.8951 55.8616 63.8865 55.7855C63.8616 55.4219 63.9471 55.0593 64.1316 54.7462C64.3161 54.4331 64.5907 54.1844 64.9188 54.0334C64.9758 54.0055 65.0372 53.9873 65.1001 53.9797Z" fill="white"/>
<path opacity="0.2" d="M64.0604 56.3416C62.2673 56.4176 59.374 55.7257 57.948 54.254C59.0127 56.5444 63.4116 57.5031 65.3213 57.1348C65.0608 57.126 64.8072 57.048 64.5859 56.9088C64.3646 56.7696 64.1834 56.574 64.0604 56.3416Z" fill="white"/>
<path opacity="0.2" d="M68.2293 55.113C67.7987 55.6244 66.964 55.7318 66.3491 55.4291C66.1482 55.329 65.9641 55.1977 65.8035 55.0399C66.0417 55.5778 66.45 56.0205 66.964 56.2984C67.6541 56.6369 68.6186 56.4639 68.9828 55.781C68.6727 55.6373 68.4108 55.4051 68.2293 55.113Z" fill="white"/>
</g>
<path opacity="0.2" d="M99.0747 55.0621C99.0747 55.0621 81.3656 83.912 73.7328 85.4046C73.2917 85.4939 72.8446 85.5492 72.3953 85.5702C73.0096 85.5879 73.6238 85.5323 74.2253 85.4046C81.8507 83.9135 99.5599 55.0621 99.5599 55.0621L99.1647 54.9204C99.1101 55.0144 99.0747 55.0621 99.0747 55.0621Z" fill="white"/>
<path opacity="0.2" d="M29.2203 55.0621C29.2203 55.0621 46.9294 83.912 54.5622 85.4046C55.0033 85.4939 55.4504 85.5492 55.8997 85.5702C55.2854 85.5879 54.6711 85.5323 54.0697 85.4046C46.4442 83.9135 28.7351 55.0621 28.7351 55.0621L29.1303 54.9204C29.1849 55.0144 29.2203 55.0621 29.2203 55.0621Z" fill="white"/>
<path d="M64.1476 75.5813C65.698 75.5813 67.2332 75.8901 68.6656 76.49C70.098 77.0899 71.3995 77.9693 72.4958 79.0778C73.5921 80.1863 74.4617 81.5023 75.055 82.9507C75.6483 84.3991 75.9537 85.9514 75.9537 87.5191V92.4935H52.3416V87.5191C52.3416 85.9514 52.6469 84.3991 53.2402 82.9507C53.8335 81.5023 54.7032 80.1863 55.7995 79.0778C56.8958 77.9693 58.1973 77.0899 59.6296 76.49C61.062 75.8901 62.5972 75.5813 64.1476 75.5813Z" fill="#FF9800"/>
<path opacity="0.2" d="M64.27 75.6439C63.8405 75.6439 63.4112 75.6673 62.9841 75.714C63.1316 75.714 63.2658 75.7051 63.4088 75.7051C66.54 75.7051 69.5429 76.9628 71.757 79.2016C73.9711 81.4403 75.2149 84.4768 75.2149 87.6429V92.5546H76.0761V87.5817C76.0761 84.4156 74.8323 81.3792 72.6182 79.1404C70.4041 76.9017 67.4012 75.6439 64.27 75.6439Z" fill="white"/>
<path opacity="0.2" d="M64.0251 75.6439C64.4546 75.6439 64.8839 75.6673 65.311 75.714C65.1635 75.714 65.0293 75.7051 64.8863 75.7051C61.7551 75.7051 58.7522 76.9628 56.5381 79.2016C54.324 81.4403 53.0802 84.4768 53.0802 87.6429V92.5546H52.219V87.5817C52.219 84.4156 53.4628 81.3792 55.6769 79.1404C57.891 76.9017 60.8939 75.6439 64.0251 75.6439Z" fill="white"/>
<path d="M67.5907 75.7676C67.5907 73.8447 66.0491 72.2859 64.1474 72.2859C62.2457 72.2859 60.7041 73.8447 60.7041 75.7676V77.1976C60.7041 79.1205 62.2457 80.6794 64.1474 80.6794C66.0491 80.6794 67.5907 79.1205 67.5907 77.1976V75.7676Z" fill="#F8C198"/>
<defs>
<linearGradient id="paint0_linear" x1="107.871" y1="93.9399" x2="107.871" y2="15.6567" gradientUnits="userSpaceOnUse">
<stop stop-color="#808080" stop-opacity="0.25"/>
<stop offset="0.54" stop-color="#808080" stop-opacity="0.12"/>
<stop offset="1" stop-color="#808080" stop-opacity="0.1"/>
</linearGradient>
<linearGradient id="paint1_linear" x1="5495.23" y1="49490.9" x2="5495.23" y2="8392.25" gradientUnits="userSpaceOnUse">
<stop stop-color="#808080" stop-opacity="0.25"/>
<stop offset="0.54" stop-color="#808080" stop-opacity="0.12"/>
<stop offset="1" stop-color="#808080" stop-opacity="0.1"/>
</linearGradient>
<linearGradient id="paint2_linear" x1="20.129" y1="28.3312" x2="20.129" y2="23.7087" gradientUnits="userSpaceOnUse">
<stop stop-opacity="0.12"/>
<stop offset="0.55" stop-opacity="0.09"/>
<stop offset="1" stop-opacity="0.02"/>
</linearGradient>
<linearGradient id="paint3_linear" x1="18566.6" y1="1126.23" x2="18566.6" y2="982.939" gradientUnits="userSpaceOnUse">
<stop stop-opacity="0.12"/>
<stop offset="0.55" stop-opacity="0.09"/>
<stop offset="1" stop-opacity="0.02"/>
</linearGradient>
<linearGradient id="paint4_linear" x1="18541.2" y1="1355.27" x2="18541.2" y2="1211.97" gradientUnits="userSpaceOnUse">
<stop stop-opacity="0.12"/>
<stop offset="0.55" stop-opacity="0.09"/>
<stop offset="1" stop-opacity="0.02"/>
</linearGradient>
<linearGradient id="paint5_linear" x1="18541.2" y1="1584.3" x2="18541.2" y2="1441.01" gradientUnits="userSpaceOnUse">
<stop stop-opacity="0.12"/>
<stop offset="0.55" stop-opacity="0.09"/>
<stop offset="1" stop-opacity="0.02"/>
</linearGradient>
<linearGradient id="paint6_linear" x1="18541.2" y1="1813.33" x2="18541.2" y2="1670.04" gradientUnits="userSpaceOnUse">
<stop stop-opacity="0.12"/>
<stop offset="0.55" stop-opacity="0.09"/>
<stop offset="1" stop-opacity="0.02"/>
</linearGradient>
<linearGradient id="paint7_linear" x1="18541.2" y1="2042.37" x2="18541.2" y2="1899.07" gradientUnits="userSpaceOnUse">
<stop stop-opacity="0.12"/>
<stop offset="0.55" stop-opacity="0.09"/>
<stop offset="1" stop-opacity="0.02"/>
</linearGradient>
<linearGradient id="paint8_linear" x1="18541.2" y1="2271.39" x2="18541.2" y2="2128.1" gradientUnits="userSpaceOnUse">
<stop stop-opacity="0.12"/>
<stop offset="0.55" stop-opacity="0.09"/>
<stop offset="1" stop-opacity="0.02"/>
</linearGradient>
<linearGradient id="paint9_linear" x1="18541.2" y1="2500.43" x2="18541.2" y2="2357.14" gradientUnits="userSpaceOnUse">
<stop stop-opacity="0.12"/>
<stop offset="0.55" stop-opacity="0.09"/>
<stop offset="1" stop-opacity="0.02"/>
</linearGradient>
<linearGradient id="paint10_linear" x1="18541.2" y1="2729.48" x2="18541.2" y2="2586.18" gradientUnits="userSpaceOnUse">
<stop stop-opacity="0.12"/>
<stop offset="0.55" stop-opacity="0.09"/>
<stop offset="1" stop-opacity="0.02"/>
</linearGradient>
<linearGradient id="paint11_linear" x1="18541.2" y1="23.7087" x2="18541.2" y2="23.7087" gradientUnits="userSpaceOnUse">
<stop stop-opacity="0.12"/>
<stop offset="0.55" stop-opacity="0.09"/>
<stop offset="1" stop-opacity="0.02"/>
</linearGradient>
<linearGradient id="paint12_linear" x1="1293.57" y1="1064.13" x2="5605.6" y2="1064.13" gradientUnits="userSpaceOnUse">
<stop stop-opacity="0.12"/>
<stop offset="0.55" stop-opacity="0.09"/>
<stop offset="1" stop-opacity="0.02"/>
</linearGradient>
<linearGradient id="paint13_linear" x1="1293.57" y1="1288.39" x2="5605.6" y2="1288.39" gradientUnits="userSpaceOnUse">
<stop stop-opacity="0.12"/>
<stop offset="0.55" stop-opacity="0.09"/>
<stop offset="1" stop-opacity="0.02"/>
</linearGradient>
<linearGradient id="paint14_linear" x1="1293.57" y1="1512.65" x2="5605.6" y2="1512.65" gradientUnits="userSpaceOnUse">
<stop stop-opacity="0.12"/>
<stop offset="0.55" stop-opacity="0.09"/>
<stop offset="1" stop-opacity="0.02"/>
</linearGradient>
<linearGradient id="paint15_linear" x1="1293.57" y1="1741.69" x2="5605.6" y2="1741.69" gradientUnits="userSpaceOnUse">
<stop stop-opacity="0.12"/>
<stop offset="0.55" stop-opacity="0.09"/>
<stop offset="1" stop-opacity="0.02"/>
</linearGradient>
<linearGradient id="paint16_linear" x1="1293.57" y1="1970.72" x2="5605.6" y2="1970.72" gradientUnits="userSpaceOnUse">
<stop stop-opacity="0.12"/>
<stop offset="0.55" stop-opacity="0.09"/>
<stop offset="1" stop-opacity="0.02"/>
</linearGradient>
<linearGradient id="paint17_linear" x1="1293.57" y1="2199.75" x2="5605.6" y2="2199.75" gradientUnits="userSpaceOnUse">
<stop stop-opacity="0.12"/>
<stop offset="0.55" stop-opacity="0.09"/>
<stop offset="1" stop-opacity="0.02"/>
</linearGradient>
<linearGradient id="paint18_linear" x1="11757.1" y1="3858.53" x2="65376.9" y2="3858.53" gradientUnits="userSpaceOnUse">
<stop stop-color="#808080" stop-opacity="0.25"/>
<stop offset="0.54" stop-color="#808080" stop-opacity="0.12"/>
<stop offset="1" stop-color="#808080" stop-opacity="0.1"/>
</linearGradient>
<linearGradient id="paint19_linear" x1="38636.5" y1="525.019" x2="38636.5" y2="298.222" gradientUnits="userSpaceOnUse">
<stop stop-color="#808080" stop-opacity="0.25"/>
<stop offset="0.54" stop-color="#808080" stop-opacity="0.12"/>
<stop offset="1" stop-color="#808080" stop-opacity="0.1"/>
</linearGradient>
<linearGradient id="paint20_linear" x1="47032.2" y1="31452.2" x2="47032.2" y2="18138.3" gradientUnits="userSpaceOnUse">
<stop stop-color="#808080" stop-opacity="0.25"/>
<stop offset="0.54" stop-color="#808080" stop-opacity="0.12"/>
<stop offset="1" stop-color="#808080" stop-opacity="0.1"/>
</linearGradient>
</defs>
</svg>
